<?xml version="1.0" encoding="UTF-8" standalone="no"?>
<!-- Created with Inkscape (http://www.inkscape.org/) -->

<svg
   xmlns:dc="http://purl.org/dc/elements/1.1/"
   xmlns:cc="http://creativecommons.org/ns#"
   xmlns:rdf="http://www.w3.org/1999/02/22-rdf-syntax-ns#"
   xmlns:svg="http://www.w3.org/2000/svg"
   xmlns="http://www.w3.org/2000/svg"
   xmlns:sodipodi="http://sodipodi.sourceforge.net/DTD/sodipodi-0.dtd"
   xmlns:inkscape="http://www.inkscape.org/namespaces/inkscape"
   width="1920"
   height="1080"
   viewBox="0 0 507.99999 285.75001"
   version="1.1"
   id="svg8"
   inkscape:version="0.91 r13725"
   sodipodi:docname="logo707.svg"
   inkscape:export-filename="F:\logo2.png"
   inkscape:export-xdpi="96"
   inkscape:export-ydpi="96">
  <defs
     id="defs2">
    <inkscape:path-effect
       effect="envelope"
       id="path-effect4580"
       is_visible="true"
       yy="true"
       xx="false"
       bendpath1="M 178.63106,119.63745 C 204.09728,62.46111 287.73726,49.627482 308.28824,99.277844"
       bendpath2="m 316.87332,108.3049 c 10.0759,10.68997 16.36014,35.95187 1.87876,57.4849"
       bendpath3="m 182.95711,163.25329 c 23.22684,42.40479 117.35746,36.65867 140.7191,-6.74792"
       bendpath4="M 187.41111,121.08787 V 153.1577"
       bendpath1-nodetypes="cc"
       bendpath3-nodetypes="cc"
       bendpath2-nodetypes="cc" />
    <inkscape:path-effect
       effect="envelope"
       id="path-effect4553"
       is_visible="true"
       yy="true"
       xx="true"
       bendpath1="m 216.39639,102.55451 68.09415,-0.3284"
       bendpath2="m 284.45392,102.18328 -3.34193,87.76209"
       bendpath3="m 221.86717,190.14615 58.90144,0.11351"
       bendpath4="m 216.49843,102.43038 3.02237,84.55266"
       bendpath1-nodetypes="cc"
       bendpath3-nodetypes="cc"
       bendpath4-nodetypes="cc"
       bendpath2-nodetypes="cc" />
    <inkscape:path-effect
       effect="perspective-envelope"
       up_left_point="248.27075,107.07361"
       up_right_point="255.3704,107.07361"
       down_left_point="248.27075,179.37544"
       down_right_point="255.3704,179.37544"
       id="path-effect4551"
       is_visible="true"
       deform_type="perspective"
       horizontal_mirror="false"
       vertical_mirror="false"
       overflow_perspective="false" />
    <inkscape:path-effect
       effect="sketch"
       id="path-effect4549"
       is_visible="true"
       nbiter_approxstrokes="5"
       strokelength="100"
       strokelength_rdm="0.3;1"
       strokeoverlap="0.3"
       strokeoverlap_rdm="0.3;1"
       ends_tolerance="0.1;1"
       parallel_offset="5;1"
       tremble_size="5;1"
       tremble_frequency="1"
       nbtangents="5"
       tgt_places_rdmness="1;1"
       tgtscale="10"
       tgtlength="100"
       tgtlength_rdm="0.3;1" />
    <inkscape:path-effect
       effect="envelope"
       id="path-effect857"
       is_visible="true"
       yy="true"
       xx="true"
       bendpath1="m 234.08367,89.639094 c 23.78273,-6.980245 25.875,-0.712121 32.06305,-0.242879"
       bendpath2="m 273.25529,92.689098 c -10.86093,22.590912 1.41203,85.473852 9.27045,95.888432"
       bendpath3="m 228.97106,195.35123 c 5.65112,2.2143 34.02845,3.95585 44.9159,-0.0441"
       bendpath4="m 225.18986,94.316926 c -8.56149,12.734624 -17.26095,59.318084 -7.48911,91.528954"
       bendpath1-nodetypes="cc"
       bendpath3-nodetypes="cc"
       bendpath2-nodetypes="cc"
       bendpath4-nodetypes="cc" />
  </defs>
  <sodipodi:namedview
     id="base"
     pagecolor="#ffffff"
     bordercolor="#666666"
     borderopacity="1.0"
     inkscape:pageopacity="0.0"
     inkscape:pageshadow="2"
     inkscape:zoom="0.52618243"
     inkscape:cx="1085.047"
     inkscape:cy="321.66788"
     inkscape:document-units="px"
     inkscape:current-layer="g4596"
     showgrid="false"
     units="px"
     inkscape:object-paths="true"
     inkscape:snap-intersection-paths="false"
     inkscape:window-width="1920"
     inkscape:window-height="1057"
     inkscape:window-x="-8"
     inkscape:window-y="-8"
     inkscape:window-maximized="1" />
  <metadata
     id="metadata5">
    <rdf:RDF>
      <cc:Work
         rdf:about="">
        <dc:format>image/svg+xml</dc:format>
        <dc:type
           rdf:resource="http://purl.org/dc/dcmitype/StillImage" />
        <dc:title />
      </cc:Work>
    </rdf:RDF>
  </metadata>
  <g
     inkscape:label="Layer 1"
     inkscape:groupmode="layer"
     id="layer1"
     transform="translate(0,-11.249983)"
     style="display:none"
     sodipodi:insensitive="true">
    <path
       inkscape:connector-curvature="0"
       id="path832"
       style="font-style:normal;font-variant:normal;font-weight:normal;font-stretch:normal;font-size:192.33369446px;line-height:125%;font-family:Brandish;-inkscape-font-specification:Brandish;letter-spacing:0px;word-spacing:0px;fill:#020202;fill-opacity:1;stroke:none;stroke-width:0.28850058px;stroke-linecap:butt;stroke-linejoin:miter;stroke-opacity:1"
       d="m 92.997548,101.17072 -47.625002,0 0,-33.555176 89.076394,0 -64.381952,173.018886 -30.868053,0 z" />
    <path
       inkscape:connector-curvature="0"
       id="path834"
       style="font-style:normal;font-variant:normal;font-weight:normal;font-stretch:normal;font-size:192.33369446px;line-height:125%;font-family:Brandish;-inkscape-font-specification:Brandish;letter-spacing:0px;word-spacing:0px;fill:#020202;fill-opacity:1;stroke:none;stroke-width:0.36314511px;stroke-linecap:butt;stroke-linejoin:miter;stroke-opacity:1"
       d="m 253.65068,66.479563 q 55.19571,0 87.56786,27.438348 29.34458,24.816859 29.34458,60.294459 0,35.47761 -29.11166,60.1197 -32.37217,27.43834 -87.80078,27.43834 -54.96284,0 -87.10212,-27.43834 -29.11166,-24.81686 -29.11166,-60.64399 0,-35.47761 28.87877,-59.944935 32.13927,-27.263582 87.33501,-27.263582 z m -0.4658,145.405777 q 35.63269,0 56.3602,-17.47666 18.86436,-15.90376 18.86436,-38.97294 0,-23.24395 -19.09727,-39.49724 -21.42618,-18.175726 -57.52466,-18.175726 -35.39979,0 -56.1273,17.476666 -18.63145,15.72899 -18.63145,38.79816 0,23.24396 19.09726,39.67202 21.19329,18.17572 57.05886,18.17572 z" />
    <path
       inkscape:connector-curvature="0"
       id="path836"
       style="font-style:normal;font-variant:normal;font-weight:normal;font-stretch:normal;font-size:192.33369446px;line-height:125%;font-family:Brandish;-inkscape-font-specification:Brandish;letter-spacing:0px;word-spacing:0px;fill:#020202;fill-opacity:1;stroke:none;stroke-width:0.28850058px;stroke-linecap:butt;stroke-linejoin:miter;stroke-opacity:1"
       d="m 427.34968,101.17072 -47.62499,0 0,-33.555176 89.07638,0 -64.38194,173.018886 -30.86805,0 z" />
    <flowRoot
       xml:space="preserve"
       id="flowRoot819"
       style="font-style:normal;font-weight:normal;font-size:40px;line-height:125%;font-family:sans-serif;letter-spacing:0px;word-spacing:0px;fill:#000000;fill-opacity:1;stroke:none;stroke-width:1px;stroke-linecap:butt;stroke-linejoin:miter;stroke-opacity:1"
       transform="matrix(0.26458334,0,0,0.26458334,0,11.249983)"><flowRegion
         id="flowRegion821"><rect
           id="rect823"
           width="2.8571429"
           height="900"
           x="-451.42856"
           y="1180" /></flowRegion><flowPara
         id="flowPara825" /></flowRoot>  </g>
  <g
     inkscape:groupmode="layer"
     id="layer2"
     inkscape:label="Layer 2"
     style="display:none"
     sodipodi:insensitive="true">
    <text
       xml:space="preserve"
       style="font-style:normal;font-weight:normal;font-size:22.41338921px;line-height:125%;font-family:sans-serif;letter-spacing:0px;word-spacing:0px;fill:#020202;fill-opacity:1;stroke:none;stroke-width:0.56033474px;stroke-linecap:butt;stroke-linejoin:miter;stroke-opacity:1"
       x="233.91249"
       y="133.97624"
       id="text4557"
       transform="scale(0.79924902,1.2511745)"
       sodipodi:linespacing="125%"><tspan
         sodipodi:role="line"
         id="tspan4555"
         x="233.91249"
         y="133.97624"
         style="font-style:normal;font-variant:normal;font-weight:normal;font-stretch:normal;font-size:47.81522751px;font-family:Brandish;-inkscape-font-specification:Brandish;fill:#020202;fill-opacity:1;stroke-width:0.56033474px">Electro</tspan></text>
  </g>
  <g
     transform="translate(0,-11.249983)"
     id="g4596"
     inkscape:groupmode="layer"
     inkscape:label="Layer 1 copy"
     style="display:inline">
    <path
       d="m 62.599147,106.09735 -43.194176,0 0,-30.433342 80.789109,0 -58.392132,156.921952 -27.996221,0 z"
       style="font-style:normal;font-variant:normal;font-weight:normal;font-stretch:normal;font-size:192.33369446px;line-height:125%;font-family:Brandish;-inkscape-font-specification:Brandish;letter-spacing:0px;word-spacing:0px;fill:#354458;fill-opacity:1;stroke:none;stroke-width:0.26165971px;stroke-linecap:butt;stroke-linejoin:miter;stroke-opacity:1"
       id="path4582"
       inkscape:connector-curvature="0" />
    <path
       d="m 253.5424,74.633715 q 72.30375,0 114.70974,24.885598 38.44001,22.508007 38.44001,54.684927 0,32.17692 -38.13489,54.52642 -42.40601,24.88559 -115.01486,24.88559 -71.99872,0 -114.09965,-24.88559 -38.13489,-22.50801 -38.13489,-55.00194 0,-32.17692 37.82981,-54.367907 42.10092,-24.727098 114.40473,-24.727098 z m -0.61018,131.877845 q 46.67713,0 73.82919,-15.85071 24.71142,-14.42414 24.71142,-35.34706 0,-21.08143 -25.01653,-35.82259 -28.06727,-16.48473 -75.35456,-16.48473 -46.37205,0 -73.52411,15.85071 -24.40632,14.26563 -24.40632,35.18855 0,21.08144 25.01652,35.9811 27.76219,16.48473 74.74439,16.48473 z"
       style="font-style:normal;font-variant:normal;font-weight:normal;font-stretch:normal;font-size:192.33369446px;line-height:125%;font-family:Brandish;-inkscape-font-specification:Brandish;letter-spacing:0px;word-spacing:0px;fill:#354458;fill-opacity:1;stroke:none;stroke-width:0.39582485px;stroke-linecap:butt;stroke-linejoin:miter;stroke-opacity:1"
       id="path4584"
       inkscape:connector-curvature="0" />
    <path
       d="m 456.59935,106.09735 -43.19417,0 0,-30.433341 80.7891,0 -58.39212,156.921951 -27.99622,0 z"
       style="font-style:normal;font-variant:normal;font-weight:normal;font-stretch:normal;font-size:192.33369446px;line-height:125%;font-family:Brandish;-inkscape-font-specification:Brandish;letter-spacing:0px;word-spacing:0px;fill:#354458;fill-opacity:1;stroke:none;stroke-width:0.26165971px;stroke-linecap:butt;stroke-linejoin:miter;stroke-opacity:1"
       id="path4586"
       inkscape:connector-curvature="0" />
    <flowRoot
       style="font-style:normal;font-weight:normal;font-size:40px;line-height:125%;font-family:sans-serif;letter-spacing:0px;word-spacing:0px;fill:#000000;fill-opacity:1;stroke:none;stroke-width:1px;stroke-linecap:butt;stroke-linejoin:miter;stroke-opacity:1"
       id="flowRoot4594"
       xml:space="preserve"><flowRegion
         id="flowRegion4590"><rect
           y="1180"
           x="-451.42856"
           height="900"
           width="2.8571429"
           id="rect4588" /></flowRegion><flowPara
         id="flowPara4592" /></flowRoot>  </g>
  <g
     style="display:none"
     inkscape:label="Layer 2 copy"
     id="g4602"
     inkscape:groupmode="layer"
     sodipodi:insensitive="true">
    <text
       transform="scale(0.95903897,1.0427105)"
       id="text4600"
       y="158.55292"
       x="173.55641"
       style="font-style:normal;font-weight:normal;font-size:24.39224815px;line-height:125%;font-family:sans-serif;letter-spacing:0px;word-spacing:0px;fill:#020202;fill-opacity:1;stroke:none;stroke-width:0.60980624px;stroke-linecap:butt;stroke-linejoin:miter;stroke-opacity:1"
       xml:space="preserve"
       sodipodi:linespacing="125%"><tspan
         style="font-style:normal;font-variant:normal;font-weight:normal;font-stretch:normal;font-size:52.03679657px;font-family:Brandish;-inkscape-font-specification:Brandish;fill:#020202;fill-opacity:1;stroke-width:0.60980624px"
         y="158.55292"
         x="173.55641"
         id="tspan4598"
         sodipodi:role="line">Electro</tspan></text>
  </g>
  <g
     inkscape:groupmode="layer"
     id="g881"
     inkscape:label="Layer 2 copy copy"
     style="display:inline">
    <g
       aria-label="Electro"
       transform="scale(0.95903897,1.0427105)"
       style="font-style:normal;font-weight:normal;font-size:24.39224815px;line-height:125%;font-family:sans-serif;letter-spacing:0px;word-spacing:0px;fill:#354458;fill-opacity:1;stroke:none;stroke-width:0.60980624px;stroke-linecap:butt;stroke-linejoin:miter;stroke-opacity:1"
       id="text879">
      <path
         d="m 199.53145,123.12453 -10.66755,0 q -1.21419,0 -2.08147,0.26019 -0.82392,0.21682 -1.47438,0.954 -1.12746,1.17083 -1.12746,2.7753 l 0,6.15769 15.26413,0 0,7.54533 -15.35086,0 0,5.37714 q 0,1.38765 0.1301,2.03811 0.13009,0.60709 0.73718,1.34428 1.12747,1.38765 2.86203,1.38765 l 11.70828,0 0,7.80552 -10.32064,0 q -3.20893,0 -5.46386,-0.91065 -2.25493,-0.91064 -4.3364,-3.16557 -1.73456,-1.90801 -2.51511,-3.68594 -0.78055,-1.77792 -0.78055,-4.20631 l 0,-20.20762 q 0,-2.34165 0.78055,-4.03285 0.78055,-1.73456 2.51511,-3.59921 1.73456,-1.86465 3.38239,-2.68857 1.86466,-0.95401 4.24967,-0.95401 l 12.48884,0 z"
         style="font-style:normal;font-variant:normal;font-weight:normal;font-stretch:normal;font-size:52.03679657px;font-family:Brandish;-inkscape-font-specification:Brandish;fill:#354458;fill-opacity:1;stroke-width:0.60980624px"
         id="path883"
         inkscape:connector-curvature="0" />
      <path
         d="m 203.86243,115.18892 7.37188,0 0,43.364 -7.37188,0 z"
         style="font-style:normal;font-variant:normal;font-weight:normal;font-stretch:normal;font-size:52.03679657px;font-family:Brandish;-inkscape-font-specification:Brandish;fill:#354458;fill-opacity:1;stroke-width:0.60980624px"
         id="path885"
         inkscape:connector-curvature="0" />
      <path
         d="m 242.30732,139.16921 q -0.95401,-3.46912 -3.64258,-5.4205 -2.6452,-1.95138 -6.33114,-1.95138 -4.07622,0 -7.1117,2.94875 -2.99211,2.90539 -2.99211,6.89488 0,0.69382 0.0434,1.04073 0.47701,4.29304 3.59921,6.76479 2.7753,2.21156 6.59133,2.21156 2.1682,0 4.07622,-0.73719 1.90801,-0.78055 3.2523,-2.29829 l 4.94349,5.11695 q -2.6452,2.68857 -5.55059,3.90276 -2.90539,1.2142 -6.72142,1.2142 -7.15506,0 -12.27201,-4.9435 -5.11695,-4.9435 -5.11695,-12.01183 0,-7.15506 4.94349,-12.18528 4.98686,-5.07359 12.09856,-5.07359 7.15506,0 12.48883,5.33377 5.37714,5.29041 5.37714,12.35874 0,0.78055 0,1.51774 -0.1301,0.65046 -0.17346,0.95401 l -24.45733,0 q -0.78056,0 -0.99738,-0.65046 -0.21682,-0.65046 -0.21682,-1.77792 0,-0.47701 0,-0.69383 0,-0.56373 0,-0.86728 0,-0.82391 0.17346,-1.21419 0.17346,-0.43364 0.82392,-0.43364 z"
         style="font-style:normal;font-variant:normal;font-weight:normal;font-stretch:normal;font-size:52.03679657px;font-family:Brandish;-inkscape-font-specification:Brandish;fill:#354458;fill-opacity:1;stroke-width:0.60980624px"
         id="path887"
         inkscape:connector-curvature="0" />
      <path
         d="m 274.89943,150.18367 0,7.76215 q -2.08147,0.52037 -4.24967,0.52037 -7.15506,0 -12.18528,-5.07359 -5.03023,-5.07359 -5.03023,-12.27201 0,-7.06833 5.03023,-11.96846 5.07358,-4.90013 12.22864,-4.90013 1.90802,0 4.03285,0.56373 l 0,7.5887 q -1.77792,-0.82392 -3.90276,-0.82392 -3.94612,0 -6.89487,2.60184 -3.12221,2.7753 -3.12221,7.06833 0,4.37977 3.12221,7.19843 2.90539,2.6452 6.89487,2.6452 2.1682,0 4.07622,-0.91064 z"
         style="font-style:normal;font-variant:normal;font-weight:normal;font-stretch:normal;font-size:52.03679657px;font-family:Brandish;-inkscape-font-specification:Brandish;fill:#354458;fill-opacity:1;stroke-width:0.60980624px"
         id="path889"
         inkscape:connector-curvature="0" />
      <path
         d="m 279.24803,115.27565 7.28515,0 0,8.6728 5.03023,0 0,7.63206 -5.03023,0 0,14.39685 q 0,1.17083 0.39028,2.03811 0.43364,0.86728 1.34428,1.77792 1.73456,1.73456 4.07622,1.73456 0.78055,0 1.21419,-0.0867 l 0,7.1117 q -0.30355,0 -0.69382,0 -0.34692,0.0434 -0.47701,0.0434 -1.95138,0 -3.81603,-0.60709 -2.29829,-0.73719 -5.07359,-2.64521 -1.69119,-1.17083 -2.90539,-3.64257 -1.34428,-2.73194 -1.34428,-5.5506 z"
         style="font-style:normal;font-variant:normal;font-weight:normal;font-stretch:normal;font-size:52.03679657px;font-family:Brandish;-inkscape-font-specification:Brandish;fill:#354458;fill-opacity:1;stroke-width:0.60980624px"
         id="path891"
         inkscape:connector-curvature="0" />
      <path
         d="m 306.36137,158.63965 -8.10907,-0.0434 0,-18.9067 q 0,-4.3364 1.5611,-7.50197 1.60447,-3.16557 5.07359,-5.50723 2.12484,-1.43101 3.98949,-2.03811 1.86465,-0.65046 4.07622,-0.65046 0.56373,0 1.34428,0.0867 0.78055,0.0434 1.77792,0.21682 l 0,7.67543 q -1.0841,-0.30355 -2.25492,-0.30355 -2.25493,0 -4.3364,1.51774 -1.51774,1.0841 -2.34166,2.47175 -0.78055,1.38764 -0.78055,3.20893 z"
         style="font-style:normal;font-variant:normal;font-weight:normal;font-stretch:normal;font-size:52.03679657px;font-family:Brandish;-inkscape-font-specification:Brandish;fill:#354458;fill-opacity:1;stroke-width:0.60980624px"
         id="path893"
         inkscape:connector-curvature="0" />
      <path
         d="m 336.32318,158.59628 q -7.97898,0 -12.66229,-5.24704 -4.20631,-4.72668 -4.20631,-11.62155 0,-6.98161 4.29304,-11.83837 4.8134,-5.4205 12.96583,-5.4205 7.97898,0 12.66229,5.24704 4.20631,4.72668 4.20631,11.62155 0,6.9816 -4.29304,11.83837 -4.8134,5.4205 -12.96583,5.4205 z m 0.73718,-27.05913 q -4.72667,0 -7.50197,3.12221 -2.51511,2.81865 -2.51511,6.89487 0,3.94612 2.38502,6.63469 2.68857,2.99212 7.28515,2.99212 4.72668,0 7.50197,-3.12221 2.51511,-2.81866 2.51511,-6.89488 0,-3.94612 -2.38502,-6.63469 -2.68856,-2.99211 -7.28515,-2.99211 z"
         style="font-style:normal;font-variant:normal;font-weight:normal;font-stretch:normal;font-size:52.03679657px;font-family:Brandish;-inkscape-font-specification:Brandish;fill:#354458;fill-opacity:1;stroke-width:0.60980624px"
         id="path895"
         inkscape:connector-curvature="0" />
    </g>
  </g>
</svg>
